<?xml version="1.0" encoding="UTF-8" standalone="no"?>
<!-- Created with Inkscape (http://www.inkscape.org/) -->

<svg
   xmlns:dc="http://purl.org/dc/elements/1.1/"
   xmlns:cc="http://creativecommons.org/ns#"
   xmlns:rdf="http://www.w3.org/1999/02/22-rdf-syntax-ns#"
   xmlns:svg="http://www.w3.org/2000/svg"
   xmlns="http://www.w3.org/2000/svg"
   xmlns:sodipodi="http://sodipodi.sourceforge.net/DTD/sodipodi-0.dtd"
   xmlns:inkscape="http://www.inkscape.org/namespaces/inkscape"
   width="1180.0404"
   height="823.15625"
   id="svg4362"
   version="1.1"
   inkscape:version="0.48.5 r10040"
   sodipodi:docname="ConvertTRE.svg">
  <defs
     id="defs4364">
    <marker
       inkscape:stockid="Arrow1Lstart"
       orient="auto"
       refY="0"
       refX="0"
       id="Arrow1Lstart"
       style="overflow:visible">
      <path
         id="path5080"
         d="M 0,0 5,-5 -12.5,0 5,5 0,0 z"
         style="fill-rule:evenodd;stroke:#000000;stroke-width:1pt"
         transform="matrix(0.8,0,0,0.8,10,0)"
         inkscape:connector-curvature="0" />
    </marker>
  </defs>
  <sodipodi:namedview
     id="base"
     pagecolor="#ffffff"
     bordercolor="#666666"
     borderopacity="1.0"
     inkscape:pageopacity="0.0"
     inkscape:pageshadow="2"
     inkscape:zoom="0.49497475"
     inkscape:cx="570.35133"
     inkscape:cy="292.34395"
     inkscape:document-units="px"
     inkscape:current-layer="layer1"
     showgrid="false"
     inkscape:window-width="1831"
     inkscape:window-height="1047"
     inkscape:window-x="81"
     inkscape:window-y="75"
     inkscape:window-maximized="0"
     fit-margin-top="0"
     fit-margin-left="0"
     fit-margin-right="0"
     fit-margin-bottom="0" />
  <metadata
     id="metadata4367">
    <rdf:RDF>
      <cc:Work
         rdf:about="">
        <dc:format>image/svg+xml</dc:format>
        <dc:type
           rdf:resource="http://purl.org/dc/dcmitype/StillImage" />
        <dc:title></dc:title>
      </cc:Work>
    </rdf:RDF>
  </metadata>
  <g
     inkscape:label="Layer 1"
     inkscape:groupmode="layer"
     id="layer1"
     transform="translate(189.29041,48.9375)">
    <path
       inkscape:connector-curvature="0"
       id="path2997-0"
       style="fill:#009d4a;fill-opacity:1;stroke:#009d4a;stroke-width:0.52835977px;stroke-linecap:butt;stroke-linejoin:miter;stroke-opacity:1"
       d="m 591.02477,104.22785 c 0,0 3.79623,192.05716 29.31589,312.97177 12.73043,60.31804 39.77754,168.52778 84.39896,291.68202 l -3.77152,17.2193 C 662.83499,628.84251 605.40048,445.92586 593.92729,368.82971 573.12485,257.04101 559.73391,125.56535 557.6509,65.738116 z M 540.38902,43.516547 c 4.11732,13.995507 -3.94518,118.988943 52.47075,363.240583 41.02412,177.61295 58.96704,199.61981 106.85403,326.9077 l -2.19496,14.77212 C 634.76253,612.6017 604.75898,521.72042 570.15628,391.78031 534.16959,252.00163 507.79878,24.69964 507.79878,5.3327094 z M 496.67237,-8.6343933 c 0,0 16.35492,223.5734033 72.08276,419.9046433 55.72785,196.33128 57.76859,185.48737 127.42841,345.18284 l -2.42296,16.90878 c 0,0 -72.84357,-144.66132 -88.66119,-193.94184 C 515.05321,328.04023 490.74859,163.88877 462.14534,-48.08851 z" />
    <path
       style="fill:#005f9e;fill-opacity:1;stroke:#005f9e;stroke-width:0.65934402px;stroke-linecap:butt;stroke-linejoin:miter;stroke-opacity:1"
       d="M 706.44273,699.35154 661.46899,551.22506 c 0,0 -17.96769,-107.58138 29.9825,-203.25891 47.937,-95.65125 103.22231,-97.644 131.9229,-97.644 22.00504,0 76.47402,-0.12034 131.72744,98.18786 l 6.62027,23.36897 c 0,0 -60.82159,-100.96521 -136.20611,-85.68759 -75.38452,15.27762 -108.79357,81.03786 -129.35297,133.51321 8.29244,-10.52409 43.51363,-119.76865 144.34421,-120.89257 69.31726,-0.77263 98.16356,55.52091 128.80681,95.62008 l 6.62025,24.09555 c 0,0 -54.90271,-94.47431 -128.57392,-87.16763 -73.67124,7.30669 -129.35297,95.65129 -143.48757,154.1048 0,0 46.67625,-135.72517 145.20085,-138.16291 87.60261,-2.16748 130.75064,92.85411 135.34948,95.65125 l 5.99648,23.24857 c 0,0 -54.8251,-91.66578 -125.92641,-87.01605 -71.1013,4.64967 -119.00548,94.25307 -134.92114,124.21375 -31.43204,66.02331 -28.69752,155.87609 -23.12933,195.9521 z"
       id="path3071"
       inkscape:connector-curvature="0"
       sodipodi:nodetypes="ccscccscsccscsccscc" />
    <path
       style="fill:#009d4a;fill-opacity:0.95294118"
       d=""
       id="path3859"
       inkscape:connector-curvature="0" />
    <path
       style="fill:#009d4a;fill-opacity:0.95294118"
       d=""
       id="path3905"
       inkscape:connector-curvature="0" />
    <path
       style="fill:#009d4a;fill-opacity:0.95294118"
       d=""
       id="path3909"
       inkscape:connector-curvature="0" />
    <path
       style="fill:#009d4a;fill-opacity:0.95294118"
       d=""
       id="path3915"
       inkscape:connector-curvature="0" />
    <path
       style="fill:#009d4a;fill-opacity:0.95294118"
       d=""
       id="path3945"
       inkscape:connector-curvature="0" />
    <path
       style="fill:#009d4a;fill-opacity:0.95294118"
       d=""
       id="path3947"
       inkscape:connector-curvature="0" />
    <path
       style="fill:#009d4a;fill-opacity:0.95294118"
       d=""
       id="path3949"
       inkscape:connector-curvature="0" />
    <path
       style="fill:#009d4a;fill-opacity:0.95294118"
       d=""
       id="path3965"
       inkscape:connector-curvature="0" />
    <path
       style="fill:#009d4a;fill-opacity:0.95294118"
       d=""
       id="path3967"
       inkscape:connector-curvature="0" />
    <path
       style="fill:#009d4a;fill-opacity:0.95294118"
       d=""
       id="path3969"
       inkscape:connector-curvature="0" />
    <path
       style="fill:#009d4a;fill-opacity:0.95294118"
       d=""
       id="path3973"
       inkscape:connector-curvature="0" />
    <path
       style="fill:#009d4a;fill-opacity:0.95294118"
       d=""
       id="path3989"
       inkscape:connector-curvature="0" />
    <path
       style="fill:#009d4a;fill-opacity:0.95294118"
       d=""
       id="path4001"
       inkscape:connector-curvature="0" />
    <path
       style="fill:#009d4a;fill-opacity:0.95294118"
       d=""
       id="path4007"
       inkscape:connector-curvature="0" />
    <path
       style="fill:#009d4a;fill-opacity:0.95294118"
       d=""
       id="path4019"
       inkscape:connector-curvature="0" />
    <path
       style="fill:#009d4a;fill-opacity:0.95294118"
       d=""
       id="path4037"
       inkscape:connector-curvature="0" />
    <path
       style="fill:#009d4a;fill-opacity:0.95294118"
       d=""
       id="path4049"
       inkscape:connector-curvature="0" />
    <path
       style="fill:#009d4a;fill-opacity:0.95294118"
       d=""
       id="path4063"
       inkscape:connector-curvature="0" />
    <path
       style="fill:#009d4a;fill-opacity:0.95294118"
       d=""
       id="path4067"
       inkscape:connector-curvature="0" />
    <path
       style="fill:#009d4a;fill-opacity:0.95294118"
       d=""
       id="path4069"
       inkscape:connector-curvature="0" />
    <path
       style="fill:#009d4a;fill-opacity:0.95294118"
       d=""
       id="path4071"
       inkscape:connector-curvature="0" />
    <path
       style="fill:#005f9e;fill-opacity:0.95294118"
       d=""
       id="path4335"
       inkscape:connector-curvature="0" />
    <g
       transform="scale(0.80300945,1.2453154)"
       style="font-size:800px;font-style:normal;font-variant:normal;font-weight:bold;font-stretch:normal;line-height:125%;letter-spacing:0px;word-spacing:0px;fill:#000000;fill-opacity:1;stroke:#ffffff;stroke-width:2.61872602;stroke-opacity:1;font-family:Times New Roman;-inkscape-font-specification:Times New Roman"
       id="text5706">
      <path
         d="m 100.8421,280.7926 146.09375,216.79688 c 24.21824,35.93756 41.47083,57.74743 51.75781,65.42969 10.28592,7.68231 22.46038,12.3047 36.52344,13.86718 l 0,14.45313 -258.203123,0 0,-14.45313 c 20.572582,-1.56248 33.853823,-4.68748 39.843753,-9.375 5.98922,-4.68747 8.98401,-10.41663 8.98437,-17.1875 -3.6e-4,-4.68745 -0.91182,-8.85411 -2.73437,-12.5 -3.64619,-7.81244 -12.76077,-22.39575 -27.343753,-43.75 l -77.34375,-114.45312 -80.859375,98.82812 c -24.2189,29.948 -36.328263,50.26048 -36.328125,60.9375 -1.38e-4,7.55213 3.124859,14.58337 9.375,21.09375 6.249846,6.51044 15.494629,11.19794 27.734375,14.0625 5.468569,1.56252 16.666475,2.34377 33.59375,2.34375 l 0,14.45313 -203.515622,0 0,-14.45313 c 23.17705,-3.3854 41.4062,-9.63539 54.6875,-18.75 17.44784,-11.97912 41.79677,-36.97909 73.04687,-75 L 1.2327271,355.01135 -133.5329,156.96448 c -22.1355,-32.55162 -34.76569,-50.65056 -37.89062,-54.29688 -7.03131,-8.59325 -13.93235,-14.713036 -20.70313,-18.359372 -6.77087,-3.645323 -16.14586,-6.379695 -28.125,-8.203125 l 0,-14.453125 262.890627,0 0,14.453125 -13.28125,0 c -15.104418,5.15e-4 -25.6512824,2.409367 -31.6406249,7.226562 -5.9898122,4.818212 -8.9846011,10.872893 -8.9843751,18.164065 -2.26e-4,5.72965 0.911232,10.67756 2.7343751,14.84375 l 26.9531249,40.625 65.625,100 55.859373,-68.35938 c 28.64543,-35.15581 42.96833,-59.76516 42.96875,-73.82812 -4.2e-4,-7.03077 -2.01865,-13.54118 -6.05469,-19.531252 -4.03686,-5.989082 -9.83113,-10.676577 -17.38281,-14.0625 -7.55247,-3.384904 -19.27121,-5.07761 -35.15625,-5.078125 l 0,-14.453125 194.92188,0 0,14.453125 c -15.36513,0.260931 -27.73491,2.14895 -37.10938,5.664062 -9.37551,3.516131 -19.40154,10.091645 -30.07812,19.726565 -6.77132,6.25048 -23.69838,25.6515 -50.78125,58.20312 z"
         style="stroke:none;stroke-opacity:1;stroke-width:2.61899995000000010;stroke-miterlimit:4;stroke-dasharray:none"
         id="path5713" />
    </g>
    <path
       style="fill:#afafaf;fill-opacity:1;stroke:none;stroke-width:0.92179155000000002;stroke-linecap:butt;stroke-linejoin:miter;stroke-miterlimit:4;stroke-opacity:1;stroke-dasharray:none;marker-start:none"
       d="m 427.85753,330.90047 0,-67.73717 64.02467,116.31188 -62.56402,116.3119 0,-67.73719 -147.35036,0.13631 -0.47975,67.87345 -64.02467,-116.31187 62.56402,-116.31194 0.47977,67.60094 z"
       id="path4528"
       inkscape:connector-curvature="0"
       sodipodi:nodetypes="ccccccccccc" />
  </g>
</svg>
