<?xml version="1.0" encoding="UTF-8" standalone="no"?>
<!-- Created with Inkscape (http://www.inkscape.org/) -->

<svg
   xmlns:dc="http://purl.org/dc/elements/1.1/"
   xmlns:cc="http://creativecommons.org/ns#"
   xmlns:rdf="http://www.w3.org/1999/02/22-rdf-syntax-ns#"
   xmlns:svg="http://www.w3.org/2000/svg"
   xmlns="http://www.w3.org/2000/svg"
   xmlns:sodipodi="http://sodipodi.sourceforge.net/DTD/sodipodi-0.dtd"
   xmlns:inkscape="http://www.inkscape.org/namespaces/inkscape"
   id="svg2985"
   version="1.1"
   inkscape:version="0.48.5 r10040"
   width="1080"
   height="1080"
   sodipodi:docname="InkscapeVesselView.svg">
  <metadata
     id="metadata2991">
    <rdf:RDF>
      <cc:Work
         rdf:about="">
        <dc:format>image/svg+xml</dc:format>
        <dc:type
           rdf:resource="http://purl.org/dc/dcmitype/StillImage" />
        <dc:title />
      </cc:Work>
    </rdf:RDF>
  </metadata>
  <defs
     id="defs2989" />
  <sodipodi:namedview
     pagecolor="#ffffff"
     bordercolor="#666666"
     borderopacity="1"
     objecttolerance="10"
     gridtolerance="10"
     guidetolerance="10"
     inkscape:pageopacity="0"
     inkscape:pageshadow="2"
     inkscape:window-width="1386"
     inkscape:window-height="855"
     id="namedview2987"
     showgrid="false"
     inkscape:zoom="0.53376656"
     inkscape:cx="478.20685"
     inkscape:cy="500.36239"
     inkscape:window-x="150"
     inkscape:window-y="161"
     inkscape:window-maximized="0"
     inkscape:current-layer="svg2985" />
  <path
     style="fill:#009d4a;fill-opacity:1;stroke:#009d4a;stroke-width:1px;stroke-linecap:butt;stroke-linejoin:miter;stroke-opacity:1"
     d="m 116.69492,77.796609 c 0,0 30.88983,272.288131 136.14406,511.398301 C 358.09322,828.30508 361.9476,815.09835 493.5154,1009.59 l -4.57627,20.5932 c 0,0 -137.58104,-176.1817 -167.45608,-236.20015 C 151.41116,487.82976 105.50654,287.91111 51.483051,29.745762 z"
     id="path2997"
     inkscape:connector-curvature="0"
     sodipodi:nodetypes="csccccc" />
  <path
     style="fill:#009d4a;fill-opacity:1;stroke:#009d4a;stroke-width:0.84869641px;stroke-linecap:butt;stroke-linejoin:miter;stroke-opacity:1"
     d="m 199.26337,141.31079 c 7.77645,17.045 -7.45134,144.91562 99.10251,442.38758 77.48299,216.3133 111.37213,243.11528 201.8172,398.13814 l -4.14567,17.99082 C 377.5084,834.39475 320.84012,723.71123 255.48535,565.45824 187.51662,395.22302 137.70958,118.39383 137.70958,94.807021 z"
     id="path2997-7"
     inkscape:connector-curvature="0"
     sodipodi:nodetypes="csccccc" />
  <path
     style="fill:#009d4a;fill-opacity:1;stroke:#009d4a;stroke-width:0.80134153px;stroke-linecap:butt;stroke-linejoin:miter;stroke-opacity:1"
     d="m 294.90006,215.25057 c 0,0 7.17002,233.90478 55.36946,381.16565 24.04421,73.46082 75.12859,205.24854 159.40591,355.23699 l -7.12333,20.97132 C 430.52938,854.17435 322.05172,631.40167 300.38211,537.5069 261.09217,401.3604 235.80042,241.23734 231.86619,168.37425 z"
     id="path2997-0"
     inkscape:connector-curvature="0"
     sodipodi:nodetypes="csccccc" />
  <path
     style="fill:#005f9e;stroke:#005f9e;stroke-width:1px;stroke-linecap:butt;stroke-linejoin:miter;stroke-opacity:1;fill-opacity:1"
     d="M 512.89212,940.04678 427.94941,759.64467 c 0,0 -33.93594,-131.02247 56.62847,-247.54729 90.53956,-116.49285 194.9579,-118.91979 249.16526,-118.91979 41.56133,0 144.43791,-0.1466 248.79609,119.58216 l 12.50383,28.46084 c 0,0 -114.87489,-122.96467 -257.25503,-104.35818 -142.38015,18.6065 -205.48044,98.69533 -244.31139,162.6046 15.6621,-12.81718 82.18503,-145.86522 272.62562,-147.23401 130.92081,-0.941 185.40336,67.61841 243.27984,116.45486 l 12.5038,29.34578 c 0,0 -103.69576,-115.05948 -242.83999,-106.16072 -139.14423,8.89876 -244.31139,116.49285 -271.00766,187.68292 0,0 88.15833,-165.29854 274.24357,-168.26744 165.4567,-2.63978 246.95118,113.08623 255.63708,116.49284 l 11.3257,28.31424 c 0,0 -103.5492,-111.63898 -237.83957,-105.97613 -134.29036,5.66284 -224.76789,114.79006 -254.8281,151.2789 -59.36626,80.40922 -54.20153,189.84019 -43.68481,238.64853 z"
     id="path3071"
     inkscape:connector-curvature="0"
     sodipodi:nodetypes="ccscccscsccscsccscc" />
  <path
     style="fill:#009d4a;fill-opacity:0.95294118"
     d=""
     id="path3859"
     inkscape:connector-curvature="0" />
  <path
     style="fill:#009d4a;fill-opacity:0.95294118"
     d=""
     id="path3905"
     inkscape:connector-curvature="0" />
  <path
     style="fill:#009d4a;fill-opacity:0.95294118"
     d=""
     id="path3909"
     inkscape:connector-curvature="0" />
  <path
     style="fill:#009d4a;fill-opacity:0.95294118"
     d=""
     id="path3915"
     inkscape:connector-curvature="0" />
  <path
     style="fill:#009d4a;fill-opacity:0.95294118"
     d=""
     id="path3945"
     inkscape:connector-curvature="0" />
  <path
     style="fill:#009d4a;fill-opacity:0.95294118"
     d=""
     id="path3947"
     inkscape:connector-curvature="0" />
  <path
     style="fill:#009d4a;fill-opacity:0.95294118"
     d=""
     id="path3949"
     inkscape:connector-curvature="0" />
  <path
     style="fill:#009d4a;fill-opacity:0.95294118"
     d=""
     id="path3965"
     inkscape:connector-curvature="0" />
  <path
     style="fill:#009d4a;fill-opacity:0.95294118"
     d=""
     id="path3967"
     inkscape:connector-curvature="0" />
  <path
     style="fill:#009d4a;fill-opacity:0.95294118"
     d=""
     id="path3969"
     inkscape:connector-curvature="0" />
  <path
     style="fill:#009d4a;fill-opacity:0.95294118"
     d=""
     id="path3973"
     inkscape:connector-curvature="0" />
  <path
     style="fill:#009d4a;fill-opacity:0.95294118"
     d=""
     id="path3989"
     inkscape:connector-curvature="0" />
  <path
     style="fill:#009d4a;fill-opacity:0.95294118"
     d=""
     id="path4001"
     inkscape:connector-curvature="0" />
  <path
     style="fill:#009d4a;fill-opacity:0.95294118"
     d=""
     id="path4007"
     inkscape:connector-curvature="0" />
  <path
     style="fill:#009d4a;fill-opacity:0.95294118"
     d="m 438.36977,827.23127 c 0,-0.4498 0.14627,-0.4498 0.31887,0 0.0741,0.1932 0.0327,0.35127 -0.092,0.35127 -0.12476,0 -0.22683,-0.15807 -0.22683,-0.35127 z"
     id="path4009"
     inkscape:connector-curvature="0" />
  <path
     style="fill:#009d4a;fill-opacity:0.95294118"
     d=""
     id="path4019"
     inkscape:connector-curvature="0" />
  <path
     style="fill:#009d4a;fill-opacity:0.95294118"
     d=""
     id="path4037"
     inkscape:connector-curvature="0" />
  <path
     style="fill:#009d4a;fill-opacity:0.95294118"
     d="m 387.57666,705.04536 c -10.55589,-28.1471 -20.34514,-56.15454 -32.27056,-92.32735 -8.10299,-24.57842 -11.66159,-36.24172 -15.54089,-50.93519 -0.79912,-3.02683 -1.50329,-5.63507 -1.5648,-5.79607 -0.0615,-0.161 0.0534,-0.29273 0.25547,-0.29273 0.22727,0 0.45532,0.3348 0.59818,0.87819 2.13857,8.13474 2.95929,11.14644 4.73845,17.38822 5.2325,18.35696 20.27355,63.91146 32.01151,96.9525 2.82614,7.95527 10.21132,28.20715 12.06266,33.0786 0.48686,1.28109 0.53504,1.58075 0.25416,1.58075 -0.19062,0 -0.4355,-0.23712 -0.54418,-0.52692 l 0,0 z"
     id="path4047"
     inkscape:connector-curvature="0" />
  <path
     style="fill:#009d4a;fill-opacity:0.95294118"
     d=""
     id="path4049"
     inkscape:connector-curvature="0" />
  <path
     style="fill:#009d4a;fill-opacity:0.95294118"
     d=""
     id="path4063"
     inkscape:connector-curvature="0" />
  <path
     style="fill:#009d4a;fill-opacity:0.95294118"
     d=""
     id="path4067"
     inkscape:connector-curvature="0" />
  <path
     style="fill:#009d4a;fill-opacity:0.95294118"
     d=""
     id="path4069"
     inkscape:connector-curvature="0" />
  <path
     style="fill:#009d4a;fill-opacity:0.95294118"
     d=""
     id="path4071"
     inkscape:connector-curvature="0" />
  <path
     style="fill:#005f9e;fill-opacity:0.95294118"
     d=""
     id="path4335"
     inkscape:connector-curvature="0" />
</svg>
